<svg width="512" height="336" viewBox="0 0 512 336" fill="none" xmlns="http://www.w3.org/2000/svg">
<path d="M503.172 335.725H8.828C3.953 335.725 0 331.772 0 326.897V9.10387C0 4.22887 3.953 0.275879 8.828 0.275879H503.173C508.048 0.275879 512.001 4.22887 512.001 9.10387V326.897C512 331.773 508.047 335.725 503.172 335.725Z" fill="#73AF00"/>
<path d="M251.41 47.2089L65.354 160.46C59.703 163.899 59.703 172.101 65.354 175.541L251.41 288.793C254.229 290.509 257.77 290.509 260.59 288.793L446.647 175.542C452.298 172.103 452.298 163.901 446.647 160.461L260.59 47.2089C257.771 45.4929 254.229 45.4929 251.41 47.2089Z" fill="#FFE15A"/>
<path d="M256 238.621C295.002 238.621 326.62 207.003 326.62 168.001C326.62 128.999 295.002 97.3811 256 97.3811C216.998 97.3811 185.38 128.999 185.38 168.001C185.38 207.003 216.998 238.621 256 238.621Z" fill="#41479B"/>
<path d="M195.401 131.874C192.069 137.452 189.496 143.514 187.796 149.951C226.945 147.005 284.858 157.957 321.718 193.724C324.124 187.583 325.712 181.041 326.308 174.202C288.247 142.169 235.628 130.778 195.401 131.874Z" fill="#F5F5F5"/>
<path d="M258.925 192.1L260.805 197.738L266.748 197.784C267.517 197.79 267.836 198.772 267.218 199.229L262.437 202.76L264.23 208.426C264.462 209.16 263.626 209.767 263.001 209.319L258.166 205.863L253.331 209.319C252.705 209.767 251.87 209.16 252.102 208.426L253.895 202.76L249.114 199.229C248.495 198.772 248.814 197.79 249.583 197.784L255.526 197.738L257.406 192.1C257.649 191.37 258.681 191.37 258.925 192.1Z" fill="#F5F5F5"/>
<path d="M282.024 206.685L282.833 209.111L285.391 209.131C285.722 209.133 285.86 209.556 285.593 209.753L283.535 211.272L284.306 213.711C284.406 214.027 284.047 214.288 283.777 214.095L281.696 212.608L279.615 214.095C279.346 214.288 278.986 214.027 279.086 213.711L279.857 211.272L277.799 209.753C277.533 209.557 277.67 209.134 278.001 209.131L280.559 209.111L281.368 206.685C281.474 206.37 281.919 206.37 282.024 206.685Z" fill="#F5F5F5"/>
<path d="M248.938 181.39L249.747 183.816L252.305 183.836C252.636 183.838 252.774 184.261 252.507 184.458L250.449 185.977L251.22 188.416C251.32 188.732 250.961 188.993 250.691 188.8L248.61 187.313L246.529 188.8C246.26 188.993 245.9 188.732 246 188.416L246.771 185.977L244.713 184.458C244.447 184.262 244.584 183.839 244.915 183.836L247.473 183.816L248.282 181.39C248.388 181.076 248.833 181.076 248.938 181.39Z" fill="#F5F5F5"/>
<path d="M204.13 178.448L204.939 180.874L207.497 180.894C207.828 180.896 207.966 181.319 207.699 181.516L205.641 183.035L206.412 185.474C206.512 185.79 206.153 186.051 205.883 185.858L203.802 184.371L201.721 185.858C201.452 186.051 201.092 185.79 201.192 185.474L201.963 183.035L199.905 181.516C199.639 181.32 199.776 180.897 200.107 180.894L202.665 180.874L203.474 178.448C203.581 178.134 204.025 178.134 204.13 178.448Z" fill="#F5F5F5"/>
<path d="M241.614 205.847L242.423 208.273L244.981 208.293C245.312 208.295 245.45 208.718 245.183 208.915L243.125 210.434L243.896 212.873C243.996 213.189 243.637 213.45 243.367 213.257L241.286 211.77L239.205 213.257C238.936 213.45 238.576 213.189 238.676 212.873L239.447 210.434L237.389 208.915C237.123 208.719 237.26 208.296 237.591 208.293L240.149 208.273L240.958 205.847C241.065 205.534 241.51 205.534 241.614 205.847Z" fill="#F5F5F5"/>
<path d="M220.99 176.755L221.652 178.739L223.744 178.756C224.014 178.758 224.127 179.104 223.91 179.265L222.227 180.507L222.858 182.501C222.94 182.759 222.646 182.973 222.425 182.815L220.723 181.599L219.021 182.815C218.8 182.973 218.507 182.759 218.588 182.501L219.219 180.507L217.536 179.265C217.319 179.104 217.43 178.758 217.702 178.756L219.794 178.739L220.456 176.755C220.541 176.498 220.904 176.498 220.99 176.755Z" fill="#F5F5F5"/>
<path d="M283.819 135.794L284.647 138.276L287.263 138.296C287.602 138.298 287.742 138.731 287.469 138.932L285.365 140.486L286.154 142.981C286.257 143.304 285.888 143.571 285.613 143.374L283.484 141.852L281.355 143.374C281.079 143.572 280.712 143.303 280.814 142.981L281.603 140.486L279.499 138.932C279.226 138.731 279.367 138.299 279.705 138.296L282.321 138.276L283.149 135.794C283.257 135.472 283.712 135.472 283.819 135.794Z" fill="#F5F5F5"/>
<path d="M207.012 164.617L207.674 166.601L209.766 166.618C210.036 166.62 210.149 166.966 209.932 167.127L208.249 168.369L208.88 170.363C208.962 170.621 208.668 170.835 208.447 170.677L206.745 169.461L205.043 170.677C204.822 170.835 204.529 170.621 204.61 170.363L205.241 168.369L203.558 167.127C203.341 166.966 203.452 166.621 203.724 166.618L205.816 166.601L206.478 164.617C206.563 164.36 206.926 164.36 207.012 164.617Z" fill="#F5F5F5"/>
<path d="M217.112 192.581L218.114 195.587L221.282 195.611C221.692 195.614 221.862 196.137 221.532 196.381L218.983 198.263L219.939 201.283C220.063 201.674 219.618 201.998 219.284 201.759L216.706 199.917L214.128 201.759C213.795 201.997 213.349 201.674 213.473 201.283L214.429 198.263L211.88 196.381C211.55 196.137 211.72 195.614 212.13 195.611L215.298 195.587L216.3 192.581C216.433 192.193 216.983 192.193 217.112 192.581Z" fill="#F5F5F5"/>
<path d="M294.903 207.315L295.533 209.206L297.526 209.221C297.784 209.223 297.891 209.552 297.684 209.705L296.081 210.889L296.682 212.789C296.76 213.035 296.48 213.238 296.269 213.088L294.648 211.929L293.026 213.088C292.816 213.238 292.536 213.035 292.613 212.789L293.214 210.889L291.611 209.705C291.404 209.552 291.511 209.223 291.769 209.221L293.762 209.206L294.392 207.315C294.475 207.07 294.822 207.07 294.903 207.315Z" fill="#F5F5F5"/>
<path d="M301.877 192.885L302.686 195.311L305.244 195.331C305.575 195.333 305.713 195.756 305.446 195.953L303.388 197.472L304.159 199.911C304.259 200.227 303.9 200.488 303.63 200.295L301.549 198.808L299.468 200.295C299.199 200.488 298.839 200.227 298.939 199.911L299.71 197.472L297.652 195.953C297.386 195.757 297.523 195.334 297.854 195.331L300.412 195.311L301.221 192.885C301.327 192.57 301.772 192.57 301.877 192.885Z" fill="#F5F5F5"/>
</svg>
